<mxfile host="app.diagrams.net" modified="2023-08-01T05:59:12.273Z" agent="Mozilla/5.0 (Windows NT 10.0; Win64; x64) AppleWebKit/537.36 (KHTML, like Gecko) Chrome/115.0.0.0 Safari/537.36" etag="S5pm2oflMukg_0YQSDgH" version="21.6.6" type="device">
  <diagram name="Page-1" id="sg8tQuAPL9iXGljp5b3l">
    <mxGraphModel dx="2250" dy="548" grid="1" gridSize="10" guides="1" tooltips="1" connect="1" arrows="1" fold="1" page="1" pageScale="1" pageWidth="850" pageHeight="1100" math="0" shadow="0">
      <root>
        <mxCell id="0" />
        <mxCell id="1" parent="0" />
        <mxCell id="srCuhlfIYJjgl_A2t4yZ-5" style="edgeStyle=orthogonalEdgeStyle;rounded=0;orthogonalLoop=1;jettySize=auto;html=1;exitX=1;exitY=0.5;exitDx=0;exitDy=0;entryX=0;entryY=0.5;entryDx=0;entryDy=0;" parent="1" source="j06AmoDlrQYC66J1lTnP-1" target="j06AmoDlrQYC66J1lTnP-9" edge="1">
          <mxGeometry relative="1" as="geometry" />
        </mxCell>
        <mxCell id="j06AmoDlrQYC66J1lTnP-1" value="start" style="ellipse;whiteSpace=wrap;html=1;" parent="1" vertex="1">
          <mxGeometry x="-160" y="50" width="80" height="60" as="geometry" />
        </mxCell>
        <mxCell id="srCuhlfIYJjgl_A2t4yZ-19" style="edgeStyle=orthogonalEdgeStyle;rounded=0;orthogonalLoop=1;jettySize=auto;html=1;exitX=0.5;exitY=1;exitDx=0;exitDy=0;entryX=0.5;entryY=0;entryDx=0;entryDy=0;" parent="1" source="j06AmoDlrQYC66J1lTnP-3" target="j06AmoDlrQYC66J1lTnP-5" edge="1">
          <mxGeometry relative="1" as="geometry" />
        </mxCell>
        <mxCell id="j06AmoDlrQYC66J1lTnP-3" value="search for unread files" style="rounded=0;whiteSpace=wrap;html=1;" parent="1" vertex="1">
          <mxGeometry x="450" y="250" width="120" height="70" as="geometry" />
        </mxCell>
        <mxCell id="srCuhlfIYJjgl_A2t4yZ-17" style="edgeStyle=orthogonalEdgeStyle;rounded=0;orthogonalLoop=1;jettySize=auto;html=1;entryX=0.5;entryY=0;entryDx=0;entryDy=0;" parent="1" source="j06AmoDlrQYC66J1lTnP-4" target="j06AmoDlrQYC66J1lTnP-3" edge="1">
          <mxGeometry relative="1" as="geometry" />
        </mxCell>
        <mxCell id="j06AmoDlrQYC66J1lTnP-4" value="connect to the IMAP server" style="rounded=0;whiteSpace=wrap;html=1;" parent="1" vertex="1">
          <mxGeometry x="450" y="140" width="120" height="70" as="geometry" />
        </mxCell>
        <mxCell id="srCuhlfIYJjgl_A2t4yZ-21" style="edgeStyle=orthogonalEdgeStyle;rounded=0;orthogonalLoop=1;jettySize=auto;html=1;exitX=0.5;exitY=1;exitDx=0;exitDy=0;entryX=0.569;entryY=-0.05;entryDx=0;entryDy=0;entryPerimeter=0;" parent="1" source="j06AmoDlrQYC66J1lTnP-5" target="j06AmoDlrQYC66J1lTnP-6" edge="1">
          <mxGeometry relative="1" as="geometry" />
        </mxCell>
        <mxCell id="j06AmoDlrQYC66J1lTnP-5" value="send the message to kafka topic :&lt;br&gt;subject,filename and processes messages display in&amp;nbsp; kafka consumer" style="rounded=0;whiteSpace=wrap;html=1;" parent="1" vertex="1">
          <mxGeometry x="450" y="350" width="130" height="80" as="geometry" />
        </mxCell>
        <mxCell id="srCuhlfIYJjgl_A2t4yZ-22" style="edgeStyle=orthogonalEdgeStyle;rounded=0;orthogonalLoop=1;jettySize=auto;html=1;exitX=0.5;exitY=1;exitDx=0;exitDy=0;entryX=0.5;entryY=0;entryDx=0;entryDy=0;" parent="1" source="j06AmoDlrQYC66J1lTnP-6" target="j06AmoDlrQYC66J1lTnP-7" edge="1">
          <mxGeometry relative="1" as="geometry" />
        </mxCell>
        <mxCell id="j06AmoDlrQYC66J1lTnP-6" value="sleep if need before processing the next rmail :5 min" style="rounded=0;whiteSpace=wrap;html=1;" parent="1" vertex="1">
          <mxGeometry x="445" y="450" width="130" height="60" as="geometry" />
        </mxCell>
        <mxCell id="srCuhlfIYJjgl_A2t4yZ-23" style="edgeStyle=orthogonalEdgeStyle;rounded=0;orthogonalLoop=1;jettySize=auto;html=1;exitX=0.5;exitY=1;exitDx=0;exitDy=0;entryX=0.5;entryY=0;entryDx=0;entryDy=0;" parent="1" source="j06AmoDlrQYC66J1lTnP-7" target="srCuhlfIYJjgl_A2t4yZ-4" edge="1">
          <mxGeometry relative="1" as="geometry" />
        </mxCell>
        <mxCell id="j06AmoDlrQYC66J1lTnP-7" value="close the kafka producer when all messages are sent" style="rounded=0;whiteSpace=wrap;html=1;" parent="1" vertex="1">
          <mxGeometry x="460" y="540" width="120" height="60" as="geometry" />
        </mxCell>
        <mxCell id="srCuhlfIYJjgl_A2t4yZ-6" style="edgeStyle=orthogonalEdgeStyle;rounded=0;orthogonalLoop=1;jettySize=auto;html=1;exitX=1;exitY=0.5;exitDx=0;exitDy=0;" parent="1" source="j06AmoDlrQYC66J1lTnP-9" target="j06AmoDlrQYC66J1lTnP-10" edge="1">
          <mxGeometry relative="1" as="geometry" />
        </mxCell>
        <mxCell id="j06AmoDlrQYC66J1lTnP-9" value="create zookeeper&amp;nbsp;" style="rounded=0;whiteSpace=wrap;html=1;" parent="1" vertex="1">
          <mxGeometry x="-50" y="50" width="120" height="60" as="geometry" />
        </mxCell>
        <mxCell id="srCuhlfIYJjgl_A2t4yZ-9" style="edgeStyle=orthogonalEdgeStyle;rounded=0;orthogonalLoop=1;jettySize=auto;html=1;exitX=1;exitY=0.5;exitDx=0;exitDy=0;entryX=0;entryY=0.5;entryDx=0;entryDy=0;" parent="1" source="j06AmoDlrQYC66J1lTnP-10" target="srCuhlfIYJjgl_A2t4yZ-2" edge="1">
          <mxGeometry relative="1" as="geometry" />
        </mxCell>
        <mxCell id="j06AmoDlrQYC66J1lTnP-10" value="create kafka" style="rounded=0;whiteSpace=wrap;html=1;" parent="1" vertex="1">
          <mxGeometry x="100" y="50" width="120" height="60" as="geometry" />
        </mxCell>
        <mxCell id="srCuhlfIYJjgl_A2t4yZ-14" style="edgeStyle=orthogonalEdgeStyle;rounded=0;orthogonalLoop=1;jettySize=auto;html=1;exitX=1;exitY=0.5;exitDx=0;exitDy=0;entryX=0;entryY=0.5;entryDx=0;entryDy=0;" parent="1" source="srCuhlfIYJjgl_A2t4yZ-2" target="srCuhlfIYJjgl_A2t4yZ-11" edge="1">
          <mxGeometry relative="1" as="geometry" />
        </mxCell>
        <mxCell id="srCuhlfIYJjgl_A2t4yZ-2" value="create kafka topic:&lt;br&gt;and &lt;br&gt;create kafka consumer" style="rounded=0;whiteSpace=wrap;html=1;" parent="1" vertex="1">
          <mxGeometry x="250" y="50" width="120" height="60" as="geometry" />
        </mxCell>
        <mxCell id="srCuhlfIYJjgl_A2t4yZ-4" value="end" style="ellipse;whiteSpace=wrap;html=1;" parent="1" vertex="1">
          <mxGeometry x="460" y="640" width="120" height="80" as="geometry" />
        </mxCell>
        <mxCell id="srCuhlfIYJjgl_A2t4yZ-16" value="" style="edgeStyle=orthogonalEdgeStyle;rounded=0;orthogonalLoop=1;jettySize=auto;html=1;" parent="1" source="srCuhlfIYJjgl_A2t4yZ-11" target="j06AmoDlrQYC66J1lTnP-4" edge="1">
          <mxGeometry relative="1" as="geometry" />
        </mxCell>
        <mxCell id="srCuhlfIYJjgl_A2t4yZ-11" value="create the kafka&amp;nbsp;producer" style="rounded=0;whiteSpace=wrap;html=1;" parent="1" vertex="1">
          <mxGeometry x="450" y="50" width="120" height="60" as="geometry" />
        </mxCell>
        <mxCell id="UIYuxZTvy7DhlQSvGzaJ-1" value="topic:atm-Repl" style="text;html=1;align=center;verticalAlign=middle;resizable=0;points=[];autosize=1;strokeColor=none;fillColor=none;" vertex="1" parent="1">
          <mxGeometry x="250" y="128" width="100" height="30" as="geometry" />
        </mxCell>
      </root>
    </mxGraphModel>
  </diagram>
</mxfile>
